<svg width="512" height="512" viewBox="0 0 512 512" fill="none" xmlns="http://www.w3.org/2000/svg">
<rect width="512" height="512" fill="black"/>
<mask id="mask0_920_62" style="mask-type:alpha" maskUnits="userSpaceOnUse" x="0" y="0" width="512" height="512">
<rect width="512" height="512" fill="white"/>
</mask>
<g mask="url(#mask0_920_62)">
<path d="M449.923 235.885C455.14 224.628 457.748 219 462 219C466.252 219 468.86 224.628 474.077 235.885L593.287 493.116C597.225 501.614 599.194 505.863 597.231 508.931C595.269 512 590.583 512 581.21 512H342.79C333.417 512 328.731 512 326.769 508.931C324.806 505.863 326.775 501.614 330.713 493.116L449.923 235.885Z" fill="#333333"/>
<path d="M68.1133 304.698C72.033 296.233 73.9929 292 77.1878 292C80.3826 292 82.3425 296.233 86.2622 304.698L175.834 498.148C178.793 504.539 180.273 507.734 178.798 510.042C177.323 512.35 173.802 512.35 166.76 512.35H-12.3842C-19.4267 512.35 -22.9479 512.35 -24.4226 510.042C-25.8972 507.734 -24.4176 504.539 -21.4586 498.148L68.1133 304.698Z" fill="#333333"/>
<path d="M238.328 108.665C245.962 92.2216 249.778 84 256 84C262.222 84 266.038 92.2216 273.672 108.665L448.104 484.415C453.866 496.828 456.747 503.035 453.875 507.517C451.004 512 444.147 512 430.432 512H81.568C67.8535 512 60.9962 512 58.1245 507.517C55.2528 503.035 58.1341 496.828 63.8965 484.415L238.328 108.665Z" fill="#333333"/>
<circle cx="65" cy="58" r="26" fill="#333333"/>
</g>
</svg>
